<svg width="372" height="104" viewBox="0 0 372 104" fill="none" xmlns="http://www.w3.org/2000/svg">
<rect width="372" height="104" fill="#1E1E1E"/>
<g filter="url(#filter0_d_0_1)">
<rect x="7" y="3" width="358" height="90" stroke="black" stroke-width="6" shape-rendering="crispEdges"/>
</g>
<path d="M324.294 51.99H307.078V72H293.658V22.113H307.078V41.019H324.294V22.113H337.714V72H324.294V51.99Z" fill="yellow"/>
<path d="M172.776 62.496H188.904V72H160.464V21.456H172.776V62.496ZM226.241 63.072H207.377L204.353 72H191.465L209.753 21.456H224.009L242.297 72H229.265L226.241 63.072ZM223.073 53.568L216.809 35.064L210.617 53.568H223.073ZM266.15 72.504C262.454 72.504 259.142 71.904 256.214 70.704C253.286 69.504 250.934 67.728 249.158 65.376C247.43 63.024 246.518 60.192 246.422 56.88H259.526C259.718 58.752 260.366 60.192 261.47 61.2C262.574 62.16 264.014 62.64 265.79 62.64C267.614 62.64 269.054 62.232 270.11 61.416C271.166 60.552 271.694 59.376 271.694 57.888C271.694 56.64 271.262 55.608 270.398 54.792C269.582 53.976 268.55 53.304 267.302 52.776C266.102 52.248 264.374 51.648 262.118 50.976C258.854 49.968 256.19 48.96 254.126 47.952C252.062 46.944 250.286 45.456 248.798 43.488C247.31 41.52 246.566 38.952 246.566 35.784C246.566 31.08 248.27 27.408 251.678 24.768C255.086 22.08 259.526 20.736 264.998 20.736C270.566 20.736 275.054 22.08 278.462 24.768C281.87 27.408 283.694 31.104 283.934 35.856H270.614C270.518 34.224 269.918 32.952 268.814 32.04C267.71 31.08 266.294 30.6 264.566 30.6C263.078 30.6 261.878 31.008 260.966 31.824C260.054 32.592 259.598 33.72 259.598 35.208C259.598 36.84 260.366 38.112 261.902 39.024C263.438 39.936 265.838 40.92 269.102 41.976C272.366 43.08 275.006 44.136 277.022 45.144C279.086 46.152 280.862 47.616 282.35 49.536C283.838 51.456 284.582 53.928 284.582 56.952C284.582 59.832 283.838 62.448 282.35 64.8C280.91 67.152 278.798 69.024 276.014 70.416C273.23 71.808 269.942 72.504 266.15 72.504Z" fill="black"/>
<path d="M68.928 63.072H50.064L47.04 72H34.152L52.44 21.456H66.696L84.984 72H71.952L68.928 63.072ZM65.76 53.568L59.496 35.064L53.304 53.568H65.76ZM121.51 72L111.214 56.52L102.142 72H88.1739L104.374 46.296L87.8139 21.456H102.142L112.294 36.72L121.222 21.456H135.19L119.134 46.944L135.838 72H121.51Z" fill="black"/>
<defs>
<filter id="filter0_d_0_1" x="0" y="0" width="372" height="104" filterUnits="userSpaceOnUse" color-interpolation-filters="sRGB">
<feFlood flood-opacity="0" result="BackgroundImageFix"/>
<feColorMatrix in="SourceAlpha" type="matrix" values="0 0 0 0 0 0 0 0 0 0 0 0 0 0 0 0 0 0 127 0" result="hardAlpha"/>
<feOffset dy="4"/>
<feGaussianBlur stdDeviation="2"/>
<feComposite in2="hardAlpha" operator="out"/>
<feColorMatrix type="matrix" values="0 0 0 0 0 0 0 0 0 0 0 0 0 0 0 0 0 0 0.25 0"/>
<feBlend mode="normal" in2="BackgroundImageFix" result="effect1_dropShadow_0_1"/>
<feBlend mode="normal" in="SourceGraphic" in2="effect1_dropShadow_0_1" result="shape"/>
</filter>
</defs>
</svg>
