<svg width="486" height="236" viewBox="0 0 486 236" fill="none" xmlns="http://www.w3.org/2000/svg">
<rect width="486" height="236" fill="#FAF0E6"/>
<rect x="67" y="65" width="352" height="82" fill="#FAF0E6" stroke="black" stroke-width="6"/>
<path d="M222.76 171.2C222.013 170.64 221.453 170.213 221.08 169.92C219.867 170.773 218.487 171.2 216.94 171.2C215.9 171.2 214.98 171.02 214.18 170.66C213.38 170.3 212.76 169.8 212.32 169.16C211.893 168.507 211.68 167.76 211.68 166.92C211.68 166.133 211.913 165.4 212.38 164.72C212.86 164.04 213.52 163.473 214.36 163.02C213.707 161.94 213.38 160.967 213.38 160.1C213.38 159.46 213.54 158.893 213.86 158.4C214.18 157.893 214.62 157.5 215.18 157.22C215.753 156.94 216.407 156.8 217.14 156.8C217.86 156.8 218.5 156.94 219.06 157.22C219.633 157.487 220.073 157.86 220.38 158.34C220.7 158.82 220.86 159.373 220.86 160C220.86 161.493 219.933 162.773 218.08 163.84C218.733 164.613 219.687 165.527 220.94 166.58C221.3 165.913 221.533 165.127 221.64 164.22H224.1C224.02 165.687 223.593 166.987 222.82 168.12L224.34 169.34L222.76 171.2ZM217.18 158.88C216.807 158.88 216.507 158.993 216.28 159.22C216.067 159.433 215.96 159.733 215.96 160.12C215.96 160.707 216.28 161.467 216.92 162.4C217.36 162.027 217.693 161.64 217.92 161.24C218.16 160.827 218.28 160.427 218.28 160.04C218.28 159.68 218.18 159.4 217.98 159.2C217.793 158.987 217.527 158.88 217.18 158.88ZM217.16 168.88C217.933 168.88 218.627 168.707 219.24 168.36C217.84 167.147 216.7 166.02 215.82 164.98C215.767 164.927 215.7 164.847 215.62 164.74C215.3 165.02 215.053 165.34 214.88 165.7C214.707 166.047 214.62 166.407 214.62 166.78C214.62 167.433 214.847 167.947 215.3 168.32C215.753 168.693 216.373 168.88 217.16 168.88Z" fill="black"/>
<path d="M118.74 164.8C119.553 164.973 120.207 165.38 120.7 166.02C121.193 166.647 121.44 167.367 121.44 168.18C121.44 169.353 121.027 170.287 120.2 170.98C119.387 171.66 118.247 172 116.78 172H110.24V157.96H116.56C117.987 157.96 119.1 158.287 119.9 158.94C120.713 159.593 121.12 160.48 121.12 161.6C121.12 162.427 120.9 163.113 120.46 163.66C120.033 164.207 119.46 164.587 118.74 164.8ZM113.66 163.64H115.9C116.46 163.64 116.887 163.52 117.18 163.28C117.487 163.027 117.64 162.66 117.64 162.18C117.64 161.7 117.487 161.333 117.18 161.08C116.887 160.827 116.46 160.7 115.9 160.7H113.66V163.64ZM116.18 169.24C116.753 169.24 117.193 169.113 117.5 168.86C117.82 168.593 117.98 168.213 117.98 167.72C117.98 167.227 117.813 166.84 117.48 166.56C117.16 166.28 116.713 166.14 116.14 166.14H113.66V169.24H116.18ZM129.844 160.7V163.54H134.424V166.18H129.844V169.26H135.024V172H126.424V157.96H135.024V160.7H129.844ZM148.984 169.52H143.744L142.904 172H139.324L144.404 157.96H148.364L153.444 172H149.824L148.984 169.52ZM148.104 166.88L146.364 161.74L144.644 166.88H148.104ZM161.35 157.96V166.36C161.35 167.2 161.557 167.847 161.97 168.3C162.383 168.753 162.99 168.98 163.79 168.98C164.59 168.98 165.203 168.753 165.63 168.3C166.057 167.847 166.27 167.2 166.27 166.36V157.96H169.69V166.34C169.69 167.593 169.423 168.653 168.89 169.52C168.357 170.387 167.637 171.04 166.73 171.48C165.837 171.92 164.837 172.14 163.73 172.14C162.623 172.14 161.63 171.927 160.75 171.5C159.883 171.06 159.197 170.407 158.69 169.54C158.183 168.66 157.93 167.593 157.93 166.34V157.96H161.35ZM185.192 157.96V160.7H181.472V172H178.052V160.7H174.332V157.96H185.192ZM201.948 157.96L197.088 167.36V172H193.668V167.36L188.808 157.96H192.688L195.408 163.84L198.108 157.96H201.948ZM238.699 160.7V163.54H243.279V166.18H238.699V169.26H243.879V172H235.279V157.96H243.879V160.7H238.699ZM254.359 157.96C255.839 157.96 257.133 158.253 258.239 158.84C259.346 159.427 260.199 160.253 260.799 161.32C261.413 162.373 261.719 163.593 261.719 164.98C261.719 166.353 261.413 167.573 260.799 168.64C260.199 169.707 259.339 170.533 258.219 171.12C257.113 171.707 255.826 172 254.359 172H249.099V157.96H254.359ZM254.139 169.04C255.433 169.04 256.439 168.687 257.159 167.98C257.879 167.273 258.239 166.273 258.239 164.98C258.239 163.687 257.879 162.68 257.159 161.96C256.439 161.24 255.433 160.88 254.139 160.88H252.519V169.04H254.139ZM269.991 157.96V166.36C269.991 167.2 270.197 167.847 270.611 168.3C271.024 168.753 271.631 168.98 272.431 168.98C273.231 168.98 273.844 168.753 274.271 168.3C274.697 167.847 274.911 167.2 274.911 166.36V157.96H278.331V166.34C278.331 167.593 278.064 168.653 277.531 169.52C276.997 170.387 276.277 171.04 275.371 171.48C274.477 171.92 273.477 172.14 272.371 172.14C271.264 172.14 270.271 171.927 269.391 171.5C268.524 171.06 267.837 170.407 267.331 169.54C266.824 168.66 266.571 167.593 266.571 166.34V157.96H269.991ZM283.152 164.96C283.152 163.573 283.452 162.34 284.052 161.26C284.652 160.167 285.486 159.32 286.552 158.72C287.632 158.107 288.852 157.8 290.212 157.8C291.879 157.8 293.306 158.24 294.492 159.12C295.679 160 296.472 161.2 296.872 162.72H293.112C292.832 162.133 292.432 161.687 291.912 161.38C291.406 161.073 290.826 160.92 290.172 160.92C289.119 160.92 288.266 161.287 287.612 162.02C286.959 162.753 286.632 163.733 286.632 164.96C286.632 166.187 286.959 167.167 287.612 167.9C288.266 168.633 289.119 169 290.172 169C290.826 169 291.406 168.847 291.912 168.54C292.432 168.233 292.832 167.787 293.112 167.2H296.872C296.472 168.72 295.679 169.92 294.492 170.8C293.306 171.667 291.879 172.1 290.212 172.1C288.852 172.1 287.632 171.8 286.552 171.2C285.486 170.587 284.652 169.74 284.052 168.66C283.452 167.58 283.152 166.347 283.152 164.96ZM310.707 169.52H305.467L304.627 172H301.047L306.127 157.96H310.087L315.167 172H311.547L310.707 169.52ZM309.827 166.88L308.087 161.74L306.367 166.88H309.827ZM329.813 157.96V160.7H326.093V172H322.673V160.7H318.953V157.96H329.813ZM337.949 157.96V172H334.529V157.96H337.949ZM350.068 172.14C348.748 172.14 347.534 171.833 346.428 171.22C345.334 170.607 344.461 169.753 343.808 168.66C343.167 167.553 342.847 166.313 342.847 164.94C342.847 163.567 343.167 162.333 343.808 161.24C344.461 160.147 345.334 159.293 346.428 158.68C347.534 158.067 348.748 157.76 350.068 157.76C351.388 157.76 352.594 158.067 353.688 158.68C354.794 159.293 355.661 160.147 356.288 161.24C356.928 162.333 357.248 163.567 357.248 164.94C357.248 166.313 356.928 167.553 356.288 168.66C355.648 169.753 354.781 170.607 353.688 171.22C352.594 171.833 351.388 172.14 350.068 172.14ZM350.068 169.02C351.188 169.02 352.081 168.647 352.747 167.9C353.428 167.153 353.768 166.167 353.768 164.94C353.768 163.7 353.428 162.713 352.747 161.98C352.081 161.233 351.188 160.86 350.068 160.86C348.934 160.86 348.028 161.227 347.348 161.96C346.681 162.693 346.348 163.687 346.348 164.94C346.348 166.18 346.681 167.173 347.348 167.92C348.028 168.653 348.934 169.02 350.068 169.02ZM374.71 172H371.29L365.57 163.34V172H362.15V157.96H365.57L371.29 166.66V157.96H374.71V172Z" fill="black"/>
<path d="M229.624 120.146H245.752V128.828H217.312V82.6577H229.624V120.146ZM283.089 120.672H264.225L261.201 128.828H248.313L266.601 82.6577H280.857L299.145 128.828H286.113L283.089 120.672ZM279.921 111.991L273.657 95.0881L267.465 111.991H279.921ZM322.998 129.288C319.302 129.288 315.99 128.74 313.062 127.644C310.134 126.548 307.782 124.925 306.006 122.777C304.278 120.628 303.366 118.042 303.27 115.016H316.374C316.566 116.726 317.214 118.042 318.318 118.962C319.422 119.839 320.862 120.278 322.638 120.278C324.462 120.278 325.902 119.905 326.958 119.16C328.014 118.37 328.542 117.296 328.542 115.937C328.542 114.797 328.11 113.854 327.246 113.109C326.43 112.363 325.398 111.75 324.15 111.267C322.95 110.785 321.222 110.237 318.966 109.623C315.702 108.702 313.038 107.782 310.974 106.861C308.91 105.94 307.134 104.581 305.646 102.783C304.158 100.985 303.414 98.6396 303.414 95.7458C303.414 91.4488 305.118 88.0946 308.526 85.6831C311.934 83.2277 316.374 82 321.846 82C327.414 82 331.902 83.2277 335.31 85.6831C338.718 88.0946 340.542 91.4708 340.782 95.8115H327.462C327.366 94.3208 326.766 93.1588 325.662 92.3258C324.558 91.4488 323.142 91.0104 321.414 91.0104C319.926 91.0104 318.726 91.3831 317.814 92.1285C316.902 92.83 316.446 93.8604 316.446 95.2196C316.446 96.7104 317.214 97.8723 318.75 98.7054C320.286 99.5385 322.686 100.437 325.95 101.402C329.214 102.41 331.854 103.375 333.87 104.296C335.934 105.217 337.71 106.554 339.198 108.308C340.686 110.062 341.43 112.32 341.43 115.082C341.43 117.713 340.686 120.102 339.198 122.251C337.758 124.399 335.646 126.109 332.862 127.381C330.078 128.652 326.79 129.288 322.998 129.288Z" fill="black"/>
<path d="M381.142 110.549H363.926V128.828H350.506V83.2578H363.926V100.528H381.142V83.2578H394.562V128.828H381.142V110.549Z" fill="black"/>
<path d="M125.776 120.672H106.912L103.888 128.828H91L109.288 82.6577H123.544L141.832 128.828H128.8L125.776 120.672ZM122.608 111.991L116.344 95.0881L110.152 111.991H122.608ZM178.358 128.828L168.062 114.687L158.99 128.828H145.022L161.222 105.348L144.662 82.6577H158.99L169.142 96.6008L178.07 82.6577H192.038L175.982 105.94L192.686 128.828H178.358Z" fill="black"/>
</svg>
